<?xml version="1.0" standalone="no"?>
<!DOCTYPE svg PUBLIC "-//W3C//DTD SVG 20010904//EN"
 "http://www.w3.org/TR/2001/REC-SVG-20010904/DTD/svg10.dtd">
<svg version="1.0" xmlns="http://www.w3.org/2000/svg"
 width="700.000000pt" height="700.000000pt" viewBox="0 0 700.000000 700.000000"
 preserveAspectRatio="xMidYMid meet">
<metadata>
Created by potrace 1.14, written by Peter Selinger 2001-2017
</metadata>
<g transform="translate(0.000000,700.000000) scale(0.100000,-0.100000)"
fill="#000000" stroke="none">
<path d="M1653 6095 c-59 -30 -97 -79 -112 -145 -15 -63 -15 -4837 0 -4900 15
-66 53 -115 112 -145 l51 -25 1796 0 1796 0 51 25 c62 31 99 82 113 154 7 35
10 765 10 2125 l0 2071 -433 433 -432 432 -1451 0 -1450 0 -51 -25z m2907
-1608 c34 -17 70 -74 70 -112 0 -38 -36 -95 -70 -112 -36 -18 -2084 -18 -2120
0 -34 17 -70 74 -70 112 0 38 36 95 70 112 36 18 2084 18 2120 0z m12 -880
c29 -20 58 -73 58 -107 0 -34 -29 -87 -58 -107 -26 -17 -82 -18 -1027 -21
-550 -2 -1024 0 -1052 3 -85 10 -135 76 -118 155 8 38 57 87 93 93 15 2 488 4
1052 3 971 -1 1026 -2 1052 -19z m-12 -870 c34 -17 70 -74 70 -112 0 -38 -36
-95 -70 -112 -20 -10 -252 -13 -1058 -13 -1140 0 -1072 -4 -1112 63 -11 18
-20 46 -20 63 0 37 36 94 70 111 36 18 2084 18 2120 0z m12 -880 c29 -20 58
-73 58 -107 0 -34 -29 -87 -58 -107 -26 -17 -82 -18 -1027 -21 -550 -2 -1024
0 -1052 3 -40 5 -60 14 -83 36 -68 69 -38 188 55 212 11 3 484 4 1050 3 976
-1 1031 -2 1057 -19z"/>
</g>
</svg>
